<svg xmlns="http://www.w3.org/2000/svg" viewBox="0 0 414.72 1669.77">
  <defs>
    <style>
      .cls-1 {
        fill: #e57325;
      }

      .cls-2, .cls-3, .cls-5 {
        fill: none;
        stroke-miterlimit: 10;
      }

      .cls-2 {
        stroke: #e57325;
      }

      .cls-2, .cls-5 {
        stroke-width: 6px;
      }

      .cls-3 {
        stroke: #fff;
        stroke-width: 3px;
      }

      .cls-4 {
        fill: #353635;
      }

      .cls-5 {
        stroke: #353635;
      }

      .cls-6 {
        fill: #f7991c;
      }

      .cls-7 {
        fill: #fbac18;
      }

      .cls-8 {
        fill: #febf10;
      }

      .cls-9 {
        fill: #ffd100;
      }

      .cls-10 {
        fill: #ffe300;
      }

      .cls-11 {
        fill: #fff200;
      }
    </style>
  </defs>
  <g id="Layer_1" data-name="Layer 1">
    <g>
      <g>
        <path class="cls-1" d="M169.51,185V111.2a13.8,13.8,0,0,1,27.6,0V185h27.1V111.2a13.8,13.8,0,0,1,27.6,0V185H279V107.9a39.78,39.78,0,0,0-39.8-39.8h0a39.39,39.39,0,0,0-28.7,12.3A39.75,39.75,0,0,0,142,107.9V185Z"/>
        <path class="cls-2" d="M169.51,185V111.2a13.8,13.8,0,0,1,27.6,0V185h27.1V111.2a13.8,13.8,0,0,1,27.6,0V185H279V107.9a39.78,39.78,0,0,0-39.8-39.8h0a39.39,39.39,0,0,0-28.7,12.3A39.75,39.75,0,0,0,142,107.9V185Z"/>
        <path class="cls-3" d="M169.51,185V111.2a13.8,13.8,0,0,1,27.6,0V185h27.1V111.2a13.8,13.8,0,0,1,27.6,0V185H279V107.9a39.78,39.78,0,0,0-39.8-39.8h0a39.39,39.39,0,0,0-28.7,12.3A39.75,39.75,0,0,0,142,107.9V185Z"/>
      </g>
      <g>
        <path class="cls-4" d="M96.41,67.8,65.81,98.4c4.4,0,24.1-.3,25.3-.3a28.4,28.4,0,1,1-28.4,28.4l.1-27.1V55.8H32.41v70.7a58.7,58.7,0,0,0,117.4,0C149.91,95.1,127.31,69.5,96.41,67.8Z"/>
        <path class="cls-5" d="M96.41,67.8,65.81,98.4c4.4,0,24.1-.3,25.3-.3a28.4,28.4,0,1,1-28.4,28.4l.1-27.1V55.8H32.41v70.7a58.7,58.7,0,0,0,117.4,0C149.91,95.1,127.31,69.5,96.41,67.8Z"/>
        <path class="cls-3" d="M96.41,67.8,65.81,98.4c4.4,0,24.1-.3,25.3-.3a28.4,28.4,0,1,1-28.4,28.4l.1-27.1V55.8H32.41v70.7a58.7,58.7,0,0,0,117.4,0C149.91,95.1,127.31,69.5,96.41,67.8Z"/>
      </g>
      <path class="cls-1" d="M91.61,140.6h0a16,16,0,0,1-16-16V109.1h15.5a16,16,0,0,1,16,16h0A15.51,15.51,0,0,1,91.61,140.6Z"/>
      <g>
        <path class="cls-4" d="M360,137.3A28.39,28.39,0,1,1,333.81,98c.6,0,6.4.1,12.5.1l20.4-20.4A58.7,58.7,0,1,0,333.81,185a58.77,58.77,0,0,0,48.5-25.6Z"/>
        <path class="cls-5" d="M360,137.3A28.39,28.39,0,1,1,333.81,98c.6,0,6.4.1,12.5.1l20.4-20.4A58.7,58.7,0,1,0,333.81,185a58.77,58.77,0,0,0,48.5-25.6Z"/>
        <path class="cls-3" d="M360,137.3A28.39,28.39,0,1,1,333.81,98c.6,0,6.4.1,12.5.1l20.4-20.4A58.7,58.7,0,1,0,333.81,185a58.77,58.77,0,0,0,48.5-25.6Z"/>
      </g>
    </g>
    <g>
      <g>
        <path class="cls-6" d="M169.51,423v-73.8a13.8,13.8,0,0,1,27.6,0V423h27.1v-73.8a13.8,13.8,0,0,1,27.6,0V423H279v-77.1a39.78,39.78,0,0,0-39.8-39.8h0a39.39,39.39,0,0,0-28.7,12.3,39.75,39.75,0,0,0-68.5,27.5V423Z"/>
        <path class="cls-2" d="M169.51,423v-73.8a13.8,13.8,0,0,1,27.6,0V423h27.1v-73.8a13.8,13.8,0,0,1,27.6,0V423H279v-77.1a39.78,39.78,0,0,0-39.8-39.8h0a39.39,39.39,0,0,0-28.7,12.3,39.75,39.75,0,0,0-68.5,27.5V423Z"/>
        <path class="cls-3" d="M169.51,423v-73.8a13.8,13.8,0,0,1,27.6,0V423h27.1v-73.8a13.8,13.8,0,0,1,27.6,0V423H279v-77.1a39.78,39.78,0,0,0-39.8-39.8h0a39.39,39.39,0,0,0-28.7,12.3,39.75,39.75,0,0,0-68.5,27.5V423Z"/>
      </g>
      <g>
        <path class="cls-4" d="M96.41,305.83l-30.6,30.6c4.4,0,24.1-.3,25.3-.3a28.4,28.4,0,1,1-28.4,28.4l.1-27.1v-43.6H32.41v70.7a58.7,58.7,0,0,0,117.4,0C149.91,333.13,127.31,307.53,96.41,305.83Z"/>
        <path class="cls-5" d="M96.41,305.83l-30.6,30.6c4.4,0,24.1-.3,25.3-.3a28.4,28.4,0,1,1-28.4,28.4l.1-27.1v-43.6H32.41v70.7a58.7,58.7,0,0,0,117.4,0C149.91,333.13,127.31,307.53,96.41,305.83Z"/>
        <path class="cls-3" d="M96.41,305.83l-30.6,30.6c4.4,0,24.1-.3,25.3-.3a28.4,28.4,0,1,1-28.4,28.4l.1-27.1v-43.6H32.41v70.7a58.7,58.7,0,0,0,117.4,0C149.91,333.13,127.31,307.53,96.41,305.83Z"/>
      </g>
      <path class="cls-6" d="M91.61,378.63h0a16,16,0,0,1-16-16v-15.5h15.5a16,16,0,0,1,16,16h0A15.51,15.51,0,0,1,91.61,378.63Z"/>
      <g>
        <path class="cls-4" d="M360,375.33a28.39,28.39,0,1,1-26.2-39.3c.6,0,6.4.1,12.5.1l20.4-20.4A58.7,58.7,0,1,0,333.81,423a58.77,58.77,0,0,0,48.5-25.6Z"/>
        <path class="cls-5" d="M360,375.33a28.39,28.39,0,1,1-26.2-39.3c.6,0,6.4.1,12.5.1l20.4-20.4A58.7,58.7,0,1,0,333.81,423a58.77,58.77,0,0,0,48.5-25.6Z"/>
        <path class="cls-3" d="M360,375.33a28.39,28.39,0,1,1-26.2-39.3c.6,0,6.4.1,12.5.1l20.4-20.4A58.7,58.7,0,1,0,333.81,423a58.77,58.77,0,0,0,48.5-25.6Z"/>
      </g>
    </g>
    <g>
      <g>
        <path class="cls-7" d="M169.51,661.06v-73.8a13.8,13.8,0,0,1,27.6,0v73.8h27.1v-73.8a13.8,13.8,0,0,1,27.6,0v73.8H279V584a39.78,39.78,0,0,0-39.8-39.8h0a39.39,39.39,0,0,0-28.7,12.3A39.75,39.75,0,0,0,142,584v77.1Z"/>
        <path class="cls-2" d="M169.51,661.06v-73.8a13.8,13.8,0,0,1,27.6,0v73.8h27.1v-73.8a13.8,13.8,0,0,1,27.6,0v73.8H279V584a39.78,39.78,0,0,0-39.8-39.8h0a39.39,39.39,0,0,0-28.7,12.3A39.75,39.75,0,0,0,142,584v77.1Z"/>
        <path class="cls-3" d="M169.51,661.06v-73.8a13.8,13.8,0,0,1,27.6,0v73.8h27.1v-73.8a13.8,13.8,0,0,1,27.6,0v73.8H279V584a39.78,39.78,0,0,0-39.8-39.8h0a39.39,39.39,0,0,0-28.7,12.3A39.75,39.75,0,0,0,142,584v77.1Z"/>
      </g>
      <g>
        <path class="cls-4" d="M96.41,543.86l-30.6,30.6c4.4,0,24.1-.3,25.3-.3a28.4,28.4,0,1,1-28.4,28.4l.1-27.1v-43.6H32.41v70.7a58.7,58.7,0,0,0,117.4,0C149.91,571.16,127.31,545.56,96.41,543.86Z"/>
        <path class="cls-5" d="M96.41,543.86l-30.6,30.6c4.4,0,24.1-.3,25.3-.3a28.4,28.4,0,1,1-28.4,28.4l.1-27.1v-43.6H32.41v70.7a58.7,58.7,0,0,0,117.4,0C149.91,571.16,127.31,545.56,96.41,543.86Z"/>
        <path class="cls-3" d="M96.41,543.86l-30.6,30.6c4.4,0,24.1-.3,25.3-.3a28.4,28.4,0,1,1-28.4,28.4l.1-27.1v-43.6H32.41v70.7a58.7,58.7,0,0,0,117.4,0C149.91,571.16,127.31,545.56,96.41,543.86Z"/>
      </g>
      <path class="cls-7" d="M91.61,616.66h0a16,16,0,0,1-16-16v-15.5h15.5a16,16,0,0,1,16,16h0A15.51,15.51,0,0,1,91.61,616.66Z"/>
      <g>
        <path class="cls-4" d="M360,613.36a28.39,28.39,0,1,1-26.2-39.3c.6,0,6.4.1,12.5.1l20.4-20.4a58.7,58.7,0,1,0-32.9,107.3,58.77,58.77,0,0,0,48.5-25.6Z"/>
        <path class="cls-5" d="M360,613.36a28.39,28.39,0,1,1-26.2-39.3c.6,0,6.4.1,12.5.1l20.4-20.4a58.7,58.7,0,1,0-32.9,107.3,58.77,58.77,0,0,0,48.5-25.6Z"/>
        <path class="cls-3" d="M360,613.36a28.39,28.39,0,1,1-26.2-39.3c.6,0,6.4.1,12.5.1l20.4-20.4a58.7,58.7,0,1,0-32.9,107.3,58.77,58.77,0,0,0,48.5-25.6Z"/>
      </g>
    </g>
    <g>
      <g>
        <path class="cls-8" d="M169.51,899.1V825.3a13.8,13.8,0,0,1,27.6,0v73.8h27.1V825.3a13.8,13.8,0,0,1,27.6,0v73.8H279V822a39.78,39.78,0,0,0-39.8-39.8h0a39.39,39.39,0,0,0-28.7,12.3A39.75,39.75,0,0,0,142,822v77.1Z"/>
        <path class="cls-2" d="M169.51,899.1V825.3a13.8,13.8,0,0,1,27.6,0v73.8h27.1V825.3a13.8,13.8,0,0,1,27.6,0v73.8H279V822a39.78,39.78,0,0,0-39.8-39.8h0a39.39,39.39,0,0,0-28.7,12.3A39.75,39.75,0,0,0,142,822v77.1Z"/>
        <path class="cls-3" d="M169.51,899.1V825.3a13.8,13.8,0,0,1,27.6,0v73.8h27.1V825.3a13.8,13.8,0,0,1,27.6,0v73.8H279V822a39.78,39.78,0,0,0-39.8-39.8h0a39.39,39.39,0,0,0-28.7,12.3A39.75,39.75,0,0,0,142,822v77.1Z"/>
      </g>
      <g>
        <path class="cls-4" d="M96.41,781.9l-30.6,30.6c4.4,0,24.1-.3,25.3-.3a28.4,28.4,0,1,1-28.4,28.4l.1-27.1V769.9H32.41v70.7a58.7,58.7,0,0,0,117.4,0C149.91,809.2,127.31,783.6,96.41,781.9Z"/>
        <path class="cls-5" d="M96.41,781.9l-30.6,30.6c4.4,0,24.1-.3,25.3-.3a28.4,28.4,0,1,1-28.4,28.4l.1-27.1V769.9H32.41v70.7a58.7,58.7,0,0,0,117.4,0C149.91,809.2,127.31,783.6,96.41,781.9Z"/>
        <path class="cls-3" d="M96.41,781.9l-30.6,30.6c4.4,0,24.1-.3,25.3-.3a28.4,28.4,0,1,1-28.4,28.4l.1-27.1V769.9H32.41v70.7a58.7,58.7,0,0,0,117.4,0C149.91,809.2,127.31,783.6,96.41,781.9Z"/>
      </g>
      <path class="cls-8" d="M91.61,854.7h0a16,16,0,0,1-16-16V823.2h15.5a16,16,0,0,1,16,16h0A15.51,15.51,0,0,1,91.61,854.7Z"/>
      <g>
        <path class="cls-4" d="M360,851.4a28.39,28.39,0,1,1-26.2-39.3c.6,0,6.4.1,12.5.1l20.4-20.4a58.7,58.7,0,1,0-32.9,107.3,58.77,58.77,0,0,0,48.5-25.6Z"/>
        <path class="cls-5" d="M360,851.4a28.39,28.39,0,1,1-26.2-39.3c.6,0,6.4.1,12.5.1l20.4-20.4a58.7,58.7,0,1,0-32.9,107.3,58.77,58.77,0,0,0,48.5-25.6Z"/>
        <path class="cls-3" d="M360,851.4a28.39,28.39,0,1,1-26.2-39.3c.6,0,6.4.1,12.5.1l20.4-20.4a58.7,58.7,0,1,0-32.9,107.3,58.77,58.77,0,0,0,48.5-25.6Z"/>
      </g>
    </g>
    <g>
      <g>
        <path class="cls-9" d="M169.51,1137.13v-73.8a13.8,13.8,0,0,1,27.6,0v73.8h27.1v-73.8a13.8,13.8,0,0,1,27.6,0v73.8H279V1060a39.78,39.78,0,0,0-39.8-39.8h0a39.39,39.39,0,0,0-28.7,12.3A39.75,39.75,0,0,0,142,1060v77.1Z"/>
        <path class="cls-2" d="M169.51,1137.13v-73.8a13.8,13.8,0,0,1,27.6,0v73.8h27.1v-73.8a13.8,13.8,0,0,1,27.6,0v73.8H279V1060a39.78,39.78,0,0,0-39.8-39.8h0a39.39,39.39,0,0,0-28.7,12.3A39.75,39.75,0,0,0,142,1060v77.1Z"/>
        <path class="cls-3" d="M169.51,1137.13v-73.8a13.8,13.8,0,0,1,27.6,0v73.8h27.1v-73.8a13.8,13.8,0,0,1,27.6,0v73.8H279V1060a39.78,39.78,0,0,0-39.8-39.8h0a39.39,39.39,0,0,0-28.7,12.3A39.75,39.75,0,0,0,142,1060v77.1Z"/>
      </g>
      <g>
        <path class="cls-4" d="M96.41,1019.93l-30.6,30.6c4.4,0,24.1-.3,25.3-.3a28.4,28.4,0,1,1-28.4,28.4l.1-27.1v-43.6H32.41v70.7a58.7,58.7,0,0,0,117.4,0C149.91,1047.23,127.31,1021.63,96.41,1019.93Z"/>
        <path class="cls-5" d="M96.41,1019.93l-30.6,30.6c4.4,0,24.1-.3,25.3-.3a28.4,28.4,0,1,1-28.4,28.4l.1-27.1v-43.6H32.41v70.7a58.7,58.7,0,0,0,117.4,0C149.91,1047.23,127.31,1021.63,96.41,1019.93Z"/>
        <path class="cls-3" d="M96.41,1019.93l-30.6,30.6c4.4,0,24.1-.3,25.3-.3a28.4,28.4,0,1,1-28.4,28.4l.1-27.1v-43.6H32.41v70.7a58.7,58.7,0,0,0,117.4,0C149.91,1047.23,127.31,1021.63,96.41,1019.93Z"/>
      </g>
      <path class="cls-9" d="M91.61,1092.73h0a16,16,0,0,1-16-16v-15.5h15.5a16,16,0,0,1,16,16h0A15.51,15.51,0,0,1,91.61,1092.73Z"/>
      <g>
        <path class="cls-4" d="M360,1089.43a28.39,28.39,0,1,1-26.2-39.3c.6,0,6.4.1,12.5.1l20.4-20.4a58.7,58.7,0,1,0-32.9,107.3,58.77,58.77,0,0,0,48.5-25.6Z"/>
        <path class="cls-5" d="M360,1089.43a28.39,28.39,0,1,1-26.2-39.3c.6,0,6.4.1,12.5.1l20.4-20.4a58.7,58.7,0,1,0-32.9,107.3,58.77,58.77,0,0,0,48.5-25.6Z"/>
        <path class="cls-3" d="M360,1089.43a28.39,28.39,0,1,1-26.2-39.3c.6,0,6.4.1,12.5.1l20.4-20.4a58.7,58.7,0,1,0-32.9,107.3,58.77,58.77,0,0,0,48.5-25.6Z"/>
      </g>
    </g>
    <g>
      <g>
        <path class="cls-10" d="M169.51,1375.16v-73.8a13.8,13.8,0,0,1,27.6,0v73.8h27.1v-73.8a13.8,13.8,0,0,1,27.6,0v73.8H279v-77.1a39.78,39.78,0,0,0-39.8-39.8h0a39.39,39.39,0,0,0-28.7,12.3,39.75,39.75,0,0,0-68.5,27.5v77.1Z"/>
        <path class="cls-2" d="M169.51,1375.16v-73.8a13.8,13.8,0,0,1,27.6,0v73.8h27.1v-73.8a13.8,13.8,0,0,1,27.6,0v73.8H279v-77.1a39.78,39.78,0,0,0-39.8-39.8h0a39.39,39.39,0,0,0-28.7,12.3,39.75,39.75,0,0,0-68.5,27.5v77.1Z"/>
        <path class="cls-3" d="M169.51,1375.16v-73.8a13.8,13.8,0,0,1,27.6,0v73.8h27.1v-73.8a13.8,13.8,0,0,1,27.6,0v73.8H279v-77.1a39.78,39.78,0,0,0-39.8-39.8h0a39.39,39.39,0,0,0-28.7,12.3,39.75,39.75,0,0,0-68.5,27.5v77.1Z"/>
      </g>
      <g>
        <path class="cls-4" d="M96.41,1258l-30.6,30.6c4.4,0,24.1-.3,25.3-.3a28.4,28.4,0,1,1-28.4,28.4l.1-27.1V1246H32.41v70.7a58.7,58.7,0,0,0,117.4,0C149.91,1285.26,127.31,1259.66,96.41,1258Z"/>
        <path class="cls-5" d="M96.41,1258l-30.6,30.6c4.4,0,24.1-.3,25.3-.3a28.4,28.4,0,1,1-28.4,28.4l.1-27.1V1246H32.41v70.7a58.7,58.7,0,0,0,117.4,0C149.91,1285.26,127.31,1259.66,96.41,1258Z"/>
        <path class="cls-3" d="M96.41,1258l-30.6,30.6c4.4,0,24.1-.3,25.3-.3a28.4,28.4,0,1,1-28.4,28.4l.1-27.1V1246H32.41v70.7a58.7,58.7,0,0,0,117.4,0C149.91,1285.26,127.31,1259.66,96.41,1258Z"/>
      </g>
      <path class="cls-10" d="M91.61,1330.76h0a16,16,0,0,1-16-16v-15.5h15.5a16,16,0,0,1,16,16h0A15.51,15.51,0,0,1,91.61,1330.76Z"/>
      <g>
        <path class="cls-4" d="M360,1327.46a28.39,28.39,0,1,1-26.2-39.3c.6,0,6.4.1,12.5.1l20.4-20.4a58.7,58.7,0,1,0-32.9,107.3,58.77,58.77,0,0,0,48.5-25.6Z"/>
        <path class="cls-5" d="M360,1327.46a28.39,28.39,0,1,1-26.2-39.3c.6,0,6.4.1,12.5.1l20.4-20.4a58.7,58.7,0,1,0-32.9,107.3,58.77,58.77,0,0,0,48.5-25.6Z"/>
        <path class="cls-3" d="M360,1327.46a28.39,28.39,0,1,1-26.2-39.3c.6,0,6.4.1,12.5.1l20.4-20.4a58.7,58.7,0,1,0-32.9,107.3,58.77,58.77,0,0,0,48.5-25.6Z"/>
      </g>
    </g>
    <g>
      <g>
        <path class="cls-11" d="M169.51,1613.19v-73.8a13.8,13.8,0,1,1,27.6,0v73.8h27.1v-73.8a13.8,13.8,0,0,1,27.6,0v73.8H279v-77.1a39.78,39.78,0,0,0-39.8-39.8h0a39.39,39.39,0,0,0-28.7,12.3,39.75,39.75,0,0,0-68.5,27.5v77.1Z"/>
        <path class="cls-2" d="M169.51,1613.19v-73.8a13.8,13.8,0,1,1,27.6,0v73.8h27.1v-73.8a13.8,13.8,0,0,1,27.6,0v73.8H279v-77.1a39.78,39.78,0,0,0-39.8-39.8h0a39.39,39.39,0,0,0-28.7,12.3,39.75,39.75,0,0,0-68.5,27.5v77.1Z"/>
        <path class="cls-3" d="M169.51,1613.19v-73.8a13.8,13.8,0,1,1,27.6,0v73.8h27.1v-73.8a13.8,13.8,0,0,1,27.6,0v73.8H279v-77.1a39.78,39.78,0,0,0-39.8-39.8h0a39.39,39.39,0,0,0-28.7,12.3,39.75,39.75,0,0,0-68.5,27.5v77.1Z"/>
      </g>
      <g>
        <path class="cls-4" d="M96.41,1496l-30.6,30.6c4.4,0,24.1-.3,25.3-.3a28.4,28.4,0,1,1-28.4,28.4l.1-27.1V1484H32.41v70.7a58.7,58.7,0,0,0,117.4,0C149.91,1523.29,127.31,1497.69,96.41,1496Z"/>
        <path class="cls-5" d="M96.41,1496l-30.6,30.6c4.4,0,24.1-.3,25.3-.3a28.4,28.4,0,1,1-28.4,28.4l.1-27.1V1484H32.41v70.7a58.7,58.7,0,0,0,117.4,0C149.91,1523.29,127.31,1497.69,96.41,1496Z"/>
        <path class="cls-3" d="M96.41,1496l-30.6,30.6c4.4,0,24.1-.3,25.3-.3a28.4,28.4,0,1,1-28.4,28.4l.1-27.1V1484H32.41v70.7a58.7,58.7,0,0,0,117.4,0C149.91,1523.29,127.31,1497.69,96.41,1496Z"/>
      </g>
      <path class="cls-11" d="M91.61,1568.79h0a16,16,0,0,1-16-16v-15.5h15.5a16,16,0,0,1,16,16h0A15.51,15.51,0,0,1,91.61,1568.79Z"/>
      <g>
        <path class="cls-4" d="M360,1565.49a28.39,28.39,0,1,1-26.2-39.3c.6,0,6.4.1,12.5.1l20.4-20.4a58.7,58.7,0,1,0-32.9,107.3,58.77,58.77,0,0,0,48.5-25.6Z"/>
        <path class="cls-5" d="M360,1565.49a28.39,28.39,0,1,1-26.2-39.3c.6,0,6.4.1,12.5.1l20.4-20.4a58.7,58.7,0,1,0-32.9,107.3,58.77,58.77,0,0,0,48.5-25.6Z"/>
        <path class="cls-3" d="M360,1565.49a28.39,28.39,0,1,1-26.2-39.3c.6,0,6.4.1,12.5.1l20.4-20.4a58.7,58.7,0,1,0-32.9,107.3,58.77,58.77,0,0,0,48.5-25.6Z"/>
      </g>
    </g>
  </g>
</svg>
